<svg width="40" height="40" viewBox="0 0 40 40" fill="none" xmlns="http://www.w3.org/2000/svg">
<g clip-path="url(#clip0_10_421)">
<path d="M5.82578 0H34.1734C35.4219 0.119531 36.6508 0.557813 37.6297 1.35391C39.0242 2.44141 39.8859 4.14219 40 5.90234V22.2984C39.8805 23.5469 39.4398 24.7742 38.6445 25.7531C37.4555 27.2789 35.5258 28.1781 33.5938 28.1258C24.9219 28.1242 16.25 28.1258 7.57812 28.125C6.62734 28.1133 5.65781 28.1914 4.73047 27.9344C3.14844 27.5484 1.74766 26.5016 0.905469 25.1109C0.378125 24.2641 0.103906 23.2852 0 22.2992V5.82656C0.13125 4.31719 0.776562 2.85 1.87266 1.79453C2.92109 0.744531 4.35391 0.129688 5.82578 0ZM5.13203 3.33516C4.17578 3.69531 3.425 4.55547 3.20703 5.55469C3.10391 5.98672 3.12656 6.43438 3.125 6.875C3.12578 11.8492 3.12422 16.8234 3.125 21.7977C3.12344 22.3211 3.23125 22.8492 3.47969 23.3125C3.96172 24.257 4.95391 24.918 6.01328 24.9867C6.4875 25.0086 6.9625 25.007 7.43594 24.9906C10.9203 25.0125 14.4062 24.9938 17.8906 25C23.1781 24.9992 28.4656 25.0023 33.7531 24.9984C34.682 24.9977 35.5992 24.5625 36.1789 23.8352C36.6445 23.2664 36.8859 22.5305 36.875 21.7977C36.875 16.6406 36.875 11.4836 36.875 6.32656C36.8898 5.46484 36.5453 4.6 35.918 4.00469C35.3094 3.40156 34.4445 3.09609 33.5938 3.12422C24.8742 3.13203 16.1539 3.1125 7.43516 3.13438C6.66641 3.13203 5.86328 3.04375 5.13203 3.33516Z" fill="#042A1B"/>
<path d="M9.11973 7.4C10.0564 6.58359 11.3268 6.15703 12.5658 6.2664C13.6096 6.34765 14.6182 6.79531 15.3807 7.51172C16.2424 8.31094 16.7846 9.44453 16.8635 10.6172C16.9432 11.7633 16.5799 12.9344 15.8658 13.8352C15.0541 14.8727 13.7877 15.5492 12.4674 15.6062C12.465 15.6164 12.4596 15.6367 12.4564 15.6469C14.9971 15.693 17.3768 17.5141 18.1205 19.9367C18.2439 20.4125 18.1213 20.9445 17.8025 21.3187C17.4838 21.7008 16.9744 21.9141 16.4775 21.8695C15.9338 21.8281 15.4236 21.4766 15.2002 20.9773C15.0588 20.6578 14.9338 20.3258 14.7205 20.0445C14.115 19.1969 13.0658 18.6922 12.0252 18.7539C10.9596 18.8039 9.9416 19.4414 9.44238 20.3852C9.25332 20.7375 9.15957 21.1539 8.85488 21.4328C8.39004 21.893 7.62988 22.0109 7.05254 21.7008C6.66582 21.5148 6.41426 21.1477 6.24785 20.7648C6.20723 20.4656 6.20645 20.1625 6.24941 19.8641C6.62754 18.8883 7.18379 17.9687 7.97051 17.268C9.0416 16.2914 10.4596 15.6797 11.915 15.6469C11.9143 15.6367 11.9127 15.6164 11.9119 15.6055C10.401 15.5453 8.96895 14.6617 8.18926 13.3742C7.5377 12.325 7.33535 11.0094 7.63848 9.8125C7.86816 8.88125 8.39473 8.02656 9.11973 7.4ZM11.8979 9.40234C11.151 9.5289 10.5682 10.2633 10.6275 11.0211C10.6502 11.8539 11.4385 12.5617 12.2689 12.4969C13.1322 12.4742 13.8572 11.632 13.7416 10.7742C13.6736 9.89609 12.7604 9.2125 11.8979 9.40234Z" fill="#042A1B"/>
<path d="M19.7758 32.0406C20.6805 31.1086 21.9875 30.5742 23.2875 30.6289C24.35 30.6625 25.3938 31.075 26.1938 31.775C27.1664 32.6133 27.7688 33.8656 27.8078 35.15C27.8539 36.3758 27.3891 37.6102 26.5508 38.5055C25.7758 39.3555 24.6789 39.8547 23.5477 40H22.7039C21.5532 39.8547 20.4407 39.3344 19.6625 38.4641C18.9203 37.6523 18.4743 36.5758 18.4414 35.4758C18.3875 34.2109 18.8891 32.9406 19.7758 32.0406ZM22.836 33.7773C22.0594 33.9062 21.468 34.693 21.5703 35.4758C21.6375 36.3047 22.4571 36.9719 23.2828 36.8664C24.1149 36.8016 24.7891 35.9797 24.6789 35.1492C24.611 34.2719 23.6985 33.5875 22.836 33.7773Z" fill="#042A1B"/>
<path d="M0.457812 34.2078C0.7625 33.8937 1.20234 33.7375 1.63594 33.7492C5.46562 33.75 9.29609 33.7508 13.1258 33.7492C13.5687 33.7547 14.0414 33.7 14.4492 33.9148C15.0422 34.2031 15.4047 34.893 15.2945 35.5453C15.1977 36.2859 14.5047 36.8875 13.7562 36.8734C9.87422 36.8781 5.99141 36.8727 2.10937 36.8758C1.67344 36.8758 1.20469 36.9148 0.813281 36.6836C0.389844 36.4633 0.129687 36.0344 0 35.5875V35.0391C0.0992187 34.7375 0.224219 34.4312 0.457812 34.2078Z" fill="#042A1B"/>
<path d="M30.954 35.0898C31.0454 34.343 31.7415 33.7375 32.4946 33.7516C34.4509 33.7469 36.4071 33.7516 38.3641 33.7492C38.7048 33.7445 39.0516 33.8297 39.3305 34.0305C39.6985 34.2773 39.9173 34.6891 40.0001 35.1164V35.5859C39.8993 35.8867 39.7751 36.1922 39.5415 36.4164C39.2368 36.7297 38.7977 36.8859 38.3649 36.8758C36.5665 36.8758 34.768 36.8727 32.9696 36.8766C32.5766 36.8773 32.1595 36.9016 31.8016 36.7102C31.2118 36.4227 30.8493 35.7398 30.954 35.0898Z" fill="#042A1B"/>
<path d="M24.246 6.28281C25.0569 6.16172 25.9077 6.38203 26.5624 6.87422C28.6319 8.425 30.7007 9.97656 32.7694 11.5289C33.3694 11.9766 33.8148 12.632 33.9788 13.3648C34.2085 14.318 33.9382 15.368 33.2952 16.1055C32.9804 16.475 32.5694 16.7398 32.1874 17.0336C30.3124 18.4391 28.4374 19.8453 26.5624 21.2508C25.8796 21.7633 24.9835 21.9797 24.1437 21.8242C22.6632 21.5906 21.5007 20.1703 21.5624 18.6719C21.5648 15.5461 21.5577 12.4203 21.5655 9.29531C21.5733 7.81406 22.7788 6.4664 24.246 6.28281ZM24.6913 9.38125C24.6835 12.5016 24.6843 15.6227 24.6921 18.7437C26.7741 17.1883 28.8569 15.6328 30.9272 14.0625C28.8585 12.4898 26.7726 10.9375 24.6913 9.38125Z" fill="white"/>
</g>
<defs>
<clipPath id="clip0_10_421">
<rect width="40" height="40" fill="white"/>
</clipPath>
</defs>
</svg>
